<svg xmlns="http://www.w3.org/2000/svg" fill="none" viewBox="0 0 394 80"><path fill="#000" d="M 33.786 1.449 A 25.836 25.836 0 0 0 25.781 0.244 A 33.511 33.511 0 0 0 16.943 1.44 A 28.185 28.185 0 0 0 8.911 5.005 A 18.539 18.539 0 0 0 3.101 10.938 A 14.335 14.335 0 0 0 1.488 14.73 A 17.455 17.455 0 0 0 0.928 19.238 A 15.807 15.807 0 0 0 1.18 22.126 A 11.419 11.419 0 0 0 3.516 27.319 A 20.457 20.457 0 0 0 5.025 28.993 A 16.6 16.6 0 0 0 9.375 32.129 A 25.147 25.147 0 0 0 16.528 34.399 A 84.56 84.56 0 0 0 24.268 35.278 Q 28.223 35.547 32.056 36.06 A 29.026 29.026 0 0 1 39.404 38.037 A 13.803 13.803 0 0 1 44.531 41.772 Q 45.922 43.364 46.432 45.61 A 12.749 12.749 0 0 1 46.729 48.438 A 17.124 17.124 0 0 1 46.51 51.223 A 12.479 12.479 0 0 1 43.726 57.397 Q 40.723 60.938 35.938 62.695 A 28.095 28.095 0 0 1 35.863 62.723 A 29.234 29.234 0 0 1 25.781 64.453 Q 17.676 64.453 11.841 61.06 A 20.234 20.234 0 0 1 3.272 51.367 A 2.194 2.194 0 0 0 3.169 51.159 Q 2.876 50.635 2.358 50.447 A 1.892 1.892 0 0 0 1.709 50.342 A 1.606 1.606 0 0 0 1.04 50.482 A 1.787 1.787 0 0 0 0.513 50.854 A 2.141 2.141 0 0 0 0.48 50.888 A 1.631 1.631 0 0 0 0 52.051 A 1.816 1.816 0 0 0 0.021 52.336 A 1.364 1.364 0 0 0 0.147 52.734 A 24.029 24.029 0 0 0 10.059 63.867 A 27.49 27.49 0 0 0 17.389 66.878 A 34.059 34.059 0 0 0 25.781 67.871 A 36.53 36.53 0 0 0 25.88 67.871 A 32.314 32.314 0 0 0 37.647 65.698 A 25.087 25.087 0 0 0 38.756 65.235 A 20.9 20.9 0 0 0 46.68 59.204 Q 50.147 54.883 50.147 48.438 A 16.783 16.783 0 0 0 49.827 45.082 A 11.802 11.802 0 0 0 47.314 39.746 A 19.627 19.627 0 0 0 46.546 38.884 A 16.399 16.399 0 0 0 40.723 34.863 Q 37.256 33.447 33.398 32.91 A 111.313 111.313 0 0 0 25.586 32.104 Q 21.631 31.836 17.896 31.25 Q 14.16 30.664 10.889 29.053 A 12.964 12.964 0 0 1 9.06 27.939 A 14.934 14.934 0 0 1 6.348 25.366 A 8.397 8.397 0 0 1 4.676 22.04 A 11.301 11.301 0 0 1 4.346 19.238 A 14.773 14.773 0 0 1 4.416 17.779 A 11.725 11.725 0 0 1 6.274 12.402 A 15.64 15.64 0 0 1 6.396 12.22 A 15.98 15.98 0 0 1 11.353 7.544 A 23.886 23.886 0 0 1 11.749 7.307 A 25.41 25.41 0 0 1 18.286 4.639 A 29.904 29.904 0 0 1 25.781 3.662 A 25.373 25.373 0 0 1 29.112 3.875 A 19.645 19.645 0 0 1 37.378 6.86 A 19.649 19.649 0 0 1 44.678 15.283 A 2.194 2.194 0 0 0 44.78 15.492 Q 45.074 16.015 45.591 16.203 A 1.892 1.892 0 0 0 46.24 16.309 A 1.606 1.606 0 0 0 46.909 16.168 A 1.787 1.787 0 0 0 47.437 15.796 A 2.141 2.141 0 0 0 47.469 15.763 A 1.631 1.631 0 0 0 47.949 14.6 A 2.466 2.466 0 0 0 47.947 14.485 Q 47.93 14.121 47.803 13.867 A 22.525 22.525 0 0 0 45.963 10.579 A 23.496 23.496 0 0 0 39.233 4.053 A 22.742 22.742 0 0 0 33.786 1.449 Z M 169.238 65.967 L 169.238 1.758 A 2.089 2.089 0 0 1 169.301 1.228 A 1.398 1.398 0 0 1 169.824 0.439 A 2.203 2.203 0 0 1 170.514 0.084 A 2.006 2.006 0 0 1 171.094 0 A 2.052 2.052 0 0 1 172.285 0.383 A 2.552 2.552 0 0 1 172.363 0.439 A 1.308 1.308 0 0 1 172.865 1.254 Q 172.916 1.504 172.9 1.807 L 172.9 31.836 Q 174.609 28.516 176.929 25.708 A 23.777 23.777 0 0 1 182.324 20.898 A 21.127 21.127 0 0 1 187.085 18.579 Q 189.6 17.725 192.383 17.725 A 20.348 20.348 0 0 1 196.777 18.172 Q 199.823 18.846 202.092 20.532 A 12.531 12.531 0 0 1 202.905 21.191 A 18.27 18.27 0 0 1 207.516 27.575 A 23.366 23.366 0 0 1 208.545 30.371 Q 210.254 36.084 210.254 42.773 L 210.205 65.967 A 2.181 2.181 0 0 1 210.146 66.491 A 1.404 1.404 0 0 1 209.644 67.285 A 1.972 1.972 0 0 1 208.398 67.725 A 2.121 2.121 0 0 1 207.287 67.406 A 2.677 2.677 0 0 1 207.105 67.285 A 1.319 1.319 0 0 1 206.568 66.405 Q 206.539 66.24 206.539 66.053 A 2.565 2.565 0 0 1 206.543 65.918 L 206.592 42.773 Q 206.592 37.158 205.322 32.3 A 19.139 19.139 0 0 0 203.735 28.153 A 14.921 14.921 0 0 0 200.977 24.438 A 10.129 10.129 0 0 0 196.339 21.894 Q 194.789 21.493 192.96 21.443 A 19.293 19.293 0 0 0 192.432 21.436 A 14.233 14.233 0 0 0 185.297 23.38 A 17.511 17.511 0 0 0 184.326 23.975 Q 181.397 25.928 178.784 29.053 A 27.785 27.785 0 0 0 174.536 36.011 Q 172.9 39.844 172.9 43.896 L 172.9 65.967 A 1.966 1.966 0 0 1 172.768 66.697 A 1.814 1.814 0 0 1 172.388 67.285 Q 171.875 67.822 171.094 67.822 A 1.872 1.872 0 0 1 170.317 67.664 A 1.819 1.819 0 0 1 169.775 67.285 A 1.789 1.789 0 0 1 169.238 65.991 A 2.255 2.255 0 0 1 169.238 65.967 Z M 119.043 30.029 A 25.214 25.214 0 0 0 115.869 42.48 A 25.351 25.351 0 0 0 119.043 54.956 Q 122.217 60.693 127.637 64.209 A 21.86 21.86 0 0 0 139.795 67.725 A 24.975 24.975 0 0 0 142.057 67.624 A 20.562 20.562 0 0 0 148.755 65.894 Q 152.783 64.063 155.737 61.06 A 26.045 26.045 0 0 0 156.713 60.012 A 22.351 22.351 0 0 0 160.303 54.541 A 2.042 2.042 0 0 0 160.384 54.358 A 1.663 1.663 0 0 0 160.498 53.76 Q 160.498 52.979 159.961 52.466 A 1.814 1.814 0 0 0 159.373 52.085 A 1.966 1.966 0 0 0 158.643 51.953 A 2.382 2.382 0 0 0 158.263 51.982 Q 157.35 52.13 156.982 53.027 A 17.755 17.755 0 0 1 154.352 57.184 A 22.007 22.007 0 0 1 150.464 60.767 A 16.618 16.618 0 0 1 145.705 63.186 A 19.282 19.282 0 0 1 139.795 64.063 Q 134.082 64.063 129.492 61.06 A 21.743 21.743 0 0 1 122.217 53.125 A 21.908 21.908 0 0 1 119.531 42.48 A 21.727 21.727 0 0 1 122.217 31.836 Q 124.902 26.953 129.492 23.975 A 18.434 18.434 0 0 1 139.746 20.996 A 21.614 21.614 0 0 1 141.628 21.077 A 17.012 17.012 0 0 1 150.391 24.292 A 23.526 23.526 0 0 1 152.721 26.237 A 18.475 18.475 0 0 1 156.885 32.031 A 2.26 2.26 0 0 0 156.9 32.067 Q 157.345 33.105 158.594 33.105 Q 160.4 33.105 160.4 31.299 A 2.768 2.768 0 0 0 160.39 31.052 Q 160.361 30.732 160.254 30.518 A 20.986 20.986 0 0 0 159.485 28.986 A 22.839 22.839 0 0 0 155.688 23.975 A 22.391 22.391 0 0 0 155.491 23.778 A 23.366 23.366 0 0 0 148.706 19.165 A 19.656 19.656 0 0 0 145.284 17.98 A 22.996 22.996 0 0 0 139.746 17.334 A 21.888 21.888 0 0 0 127.637 20.825 Q 122.217 24.316 119.043 30.029 Z M 245.02 65.186 L 272.9 1.172 Q 273.335 0.173 274.348 0.063 A 2.409 2.409 0 0 1 274.609 0.049 A 2.124 2.124 0 0 1 275.273 0.146 Q 275.962 0.372 276.27 1.123 L 304.199 65.039 Q 304.307 65.254 304.335 65.574 A 2.768 2.768 0 0 1 304.346 65.82 Q 304.346 67.627 302.539 67.627 Q 301.353 67.627 300.892 66.647 A 2.318 2.318 0 0 1 300.83 66.504 L 290.82 43.604 L 258.594 43.262 L 248.389 66.602 Q 248.008 67.575 247.04 67.705 A 2.345 2.345 0 0 1 246.729 67.725 A 1.966 1.966 0 0 1 245.998 67.592 A 1.814 1.814 0 0 1 245.41 67.212 Q 244.873 66.699 244.873 65.918 Q 244.873 65.564 244.968 65.306 A 1.164 1.164 0 0 1 245.02 65.186 Z M 93.018 19.702 A 23.15 23.15 0 0 0 83.496 17.725 A 23.058 23.058 0 0 0 71.167 21.167 A 25.949 25.949 0 0 0 62.256 30.273 A 24.174 24.174 0 0 0 58.936 42.725 A 24.214 24.214 0 0 0 62.256 55.151 Q 65.576 60.84 71.167 64.282 A 23.058 23.058 0 0 0 83.496 67.725 A 23.15 23.15 0 0 0 93.018 65.747 A 24.923 24.923 0 0 0 100.83 60.303 Q 104.199 56.836 106.128 52.319 A 24.175 24.175 0 0 0 108.057 42.725 Q 108.057 37.646 106.152 33.154 A 25.805 25.805 0 0 0 100.855 25.171 A 25.019 25.019 0 0 0 93.018 19.702 Z M 316.309 1.953 L 316.357 65.869 L 316.357 65.918 A 1.966 1.966 0 0 1 316.225 66.648 A 1.814 1.814 0 0 1 315.845 67.236 Q 315.332 67.773 314.551 67.773 A 1.872 1.872 0 0 1 313.774 67.615 A 1.819 1.819 0 0 1 313.232 67.236 A 1.789 1.789 0 0 1 312.695 65.942 A 2.255 2.255 0 0 1 312.695 65.918 L 312.647 1.953 A 1.807 1.807 0 0 1 313.149 0.697 A 2.349 2.349 0 0 1 313.184 0.659 A 1.749 1.749 0 0 1 314.453 0.098 A 2.143 2.143 0 0 1 314.502 0.098 A 1.863 1.863 0 0 1 315.175 0.216 A 1.689 1.689 0 0 1 315.796 0.635 A 1.833 1.833 0 0 1 316.308 1.929 A 2.363 2.363 0 0 1 316.309 1.953 Z M 83.496 21.387 A 19.561 19.561 0 0 0 72.998 24.316 Q 68.262 27.246 65.43 32.104 A 20.714 20.714 0 0 0 62.598 42.725 Q 62.598 48.486 65.43 53.345 Q 68.262 58.203 72.998 61.133 Q 77.734 64.063 83.496 64.063 A 19.561 19.561 0 0 0 93.994 61.133 Q 98.73 58.203 101.563 53.345 A 20.714 20.714 0 0 0 104.395 42.725 A 20.584 20.584 0 0 0 101.563 32.129 A 22.372 22.372 0 0 0 93.994 24.341 Q 89.258 21.387 83.496 21.387 Z M 289.209 39.893 L 274.609 6.445 L 260.156 39.6 L 289.209 39.893 Z"/></svg>